<svg xmlns="http://www.w3.org/2000/svg" width="23" height="25" viewBox="0 0 23 25" fill="none">
  <g clip-path="url(#clip0_58_108)">
    <path d="M10.8059 2.34889C16.3289 2.34889 20.8059 6.82589 20.8059 12.3489C20.808 14.9744 19.7775 17.4953 17.9368 19.3675C16.0962 21.2397 13.5931 22.313 10.9679 22.3555C8.3428 22.398 5.80625 21.4065 3.90591 19.5949C2.00557 17.7833 0.893897 15.2971 0.810908 12.6729L0.805908 12.3489L0.809908 12.0689C0.957908 6.67589 5.37591 2.34889 10.8059 2.34889ZM10.8159 15.3489L10.6889 15.3559C10.4459 15.3848 10.2219 15.5018 10.0593 15.6849C9.89679 15.8679 9.80702 16.1041 9.80702 16.3489C9.80702 16.5937 9.89679 16.8299 10.0593 17.0129C10.2219 17.1959 10.4459 17.313 10.6889 17.3419L10.8059 17.3489L10.9329 17.3419C11.176 17.313 11.4 17.1959 11.5625 17.0129C11.725 16.8299 11.8148 16.5937 11.8148 16.3489C11.8148 16.1041 11.725 15.8679 11.5625 15.6849C11.4 15.5018 11.176 15.3848 10.9329 15.3559L10.8159 15.3489ZM10.8059 7.34889C10.561 7.34892 10.3246 7.43885 10.1415 7.60161C9.9585 7.76437 9.84157 7.98864 9.81291 8.23189L9.80591 8.34889V12.3489L9.81291 12.4659C9.84182 12.7089 9.95886 12.9329 10.1419 13.0955C10.3249 13.258 10.5611 13.3478 10.8059 13.3478C11.0507 13.3478 11.2869 13.258 11.4699 13.0955C11.653 12.9329 11.77 12.7089 11.7989 12.4659L11.8059 12.3489V8.34889L11.7989 8.23189C11.7703 7.98864 11.6533 7.76437 11.4703 7.60161C11.2872 7.43885 11.0508 7.34892 10.8059 7.34889Z" fill="#FFC737"/>
  </g>
  <defs>
    <clipPath id="clip0_58_108">
      <rect width="24" height="24" fill="white" transform="translate(-1.19409 0.348892)"/>
    </clipPath>
  </defs>
</svg>