<svg xmlns="http://www.w3.org/2000/svg" width="23" height="25" viewBox="0 0 23 25" fill="none">
  <g clip-path="url(#clip0_58_259)">
    <path d="M15.8059 3.39032C17.3142 4.26118 18.5688 5.51085 19.4457 7.01562C20.3226 8.5204 20.7913 10.2281 20.8053 11.9697C20.8194 13.7112 20.3784 15.4263 19.5259 16.945C18.6735 18.4638 17.4392 19.7335 15.9452 20.6286C14.4511 21.5237 12.7493 22.0131 11.008 22.0484C9.26674 22.0836 7.54646 21.6635 6.01746 20.8296C4.48847 19.9956 3.20378 18.7768 2.29057 17.2938C1.37737 15.8108 0.867318 14.115 0.810908 12.3743L0.805908 12.0503L0.810908 11.7263C0.866911 9.99931 1.36946 8.31628 2.26955 6.84132C3.16964 5.36635 4.43656 4.14977 5.9468 3.31021C7.45704 2.47064 9.15905 2.03672 10.8869 2.05076C12.6148 2.0648 14.3095 2.52632 15.8059 3.39032ZM14.5129 9.34332C14.3407 9.17115 14.1116 9.06772 13.8686 9.05243C13.6256 9.03715 13.3853 9.11107 13.1929 9.26032L13.0989 9.34332L9.80591 12.6353L8.51291 11.3433L8.41891 11.2603C8.22649 11.1112 7.98628 11.0373 7.74331 11.0527C7.50035 11.068 7.27132 11.1714 7.09917 11.3436C6.92703 11.5157 6.82359 11.7448 6.80826 11.9877C6.79293 12.2307 6.86676 12.4709 7.01591 12.6633L7.09891 12.7573L9.09891 14.7573L9.19291 14.8403C9.36828 14.9764 9.58394 15.0502 9.80591 15.0502C10.0279 15.0502 10.2435 14.9764 10.4189 14.8403L10.5129 14.7573L14.5129 10.7573L14.5959 10.6633C14.7452 10.4709 14.8191 10.2307 14.8038 9.98764C14.7885 9.74462 14.6851 9.51552 14.5129 9.34332Z" fill="#0FA958"/>
  </g>
  <defs>
    <clipPath id="clip0_58_259">
      <rect width="24" height="24" fill="white" transform="translate(-1.19409 0.0503235)"/>
    </clipPath>
  </defs>
</svg>