<svg xmlns="http://www.w3.org/2000/svg" width="23" height="25" viewBox="0 0 23 25" fill="none">
  <g clip-path="url(#clip0_58_103)">
    <path d="M15.8059 3.98744C17.3142 4.8583 18.5688 6.10797 19.4457 7.61275C20.3226 9.11752 20.7913 10.8252 20.8053 12.5668C20.8194 14.3084 20.3784 16.0234 19.5259 17.5421C18.6735 19.0609 17.4392 20.3307 15.9452 21.2258C14.4511 22.1209 12.7493 22.6103 11.008 22.6455C9.26674 22.6807 7.54646 22.2606 6.01746 21.4267C4.48847 20.5928 3.20378 19.374 2.29057 17.891C1.37737 16.408 0.867318 14.7122 0.810908 12.9714L0.805908 12.6474L0.810908 12.3234C0.866911 10.5964 1.36946 8.91341 2.26955 7.43844C3.16964 5.96347 4.43656 4.7469 5.9468 3.90733C7.45704 3.06776 9.15905 2.63384 10.8869 2.64788C12.6148 2.66192 14.3095 3.12344 15.8059 3.98744ZM9.31691 9.78745C9.10739 9.66272 8.85952 9.61885 8.61992 9.66408C8.38032 9.7093 8.1655 9.84051 8.01586 10.033C7.86622 10.2255 7.79207 10.4661 7.80737 10.7094C7.82266 10.9528 7.92634 11.1822 8.09891 11.3544L9.39091 12.6474L8.09891 13.9404L8.01591 14.0344C7.8605 14.2354 7.78742 14.488 7.81151 14.741C7.8356 14.9939 7.95506 15.2282 8.14563 15.3962C8.3362 15.5642 8.58357 15.6534 8.83752 15.6457C9.09147 15.6379 9.33295 15.5338 9.51291 15.3544L10.8059 14.0624L12.0989 15.3544L12.1929 15.4374C12.3939 15.5929 12.6465 15.6659 12.8994 15.6418C13.1524 15.6178 13.3866 15.4983 13.5547 15.3077C13.7227 15.1172 13.8119 14.8698 13.8041 14.6158C13.7964 14.3619 13.6923 14.1204 13.5129 13.9404L12.2209 12.6474L13.5129 11.3544L13.5959 11.2604C13.7513 11.0595 13.8244 10.8068 13.8003 10.5539C13.7762 10.301 13.6568 10.0667 13.4662 9.89869C13.2756 9.73066 13.0282 9.64146 12.7743 9.64922C12.5203 9.65697 12.2789 9.7611 12.0989 9.94045L10.8059 11.2324L9.51291 9.94045L9.41891 9.85745L9.31691 9.78745Z" fill="#E65050"/>
  </g>
  <defs>
    <clipPath id="clip0_58_103">
      <rect width="24" height="24" fill="white" transform="translate(-1.19409 0.647446)"/>
    </clipPath>
  </defs>
</svg>